<svg baseProfile="basic" id="Слой_1" xmlns="http://www.w3.org/2000/svg" viewBox="0 0 481.9 481.9"><style>.st1{fill:#0da7fc}</style><path class="st1" d="M68.5 188.8l136.8 82.1c.9.5 1.9.8 2.9.8s2-.3 2.9-.8l212.7-127.6c1.8-1.1 1.8-3.8 0-4.9L289.1 57.5c-.9-.5-1.9-.8-2.9-.8s-2 .3-2.9.8L68.5 186.3c-.9.6-.9 1.9 0 2.5z"/><path class="st1" d="M402.6 292.8L350 261.2v-62l-133.7 80.2c-2.4 1.5-5.2 2.2-8.1 2.2s-5.6-.8-8.1-2.2L66.5 199.2v126.9c0 2 1 3.8 2.8 4.9l136.1 81.6c1.8 1.1 4 1.1 5.8 0l191.5-114.9c1.7-1.1 1.7-3.8-.1-4.9z"/></svg>