<svg baseProfile="basic" xmlns="http://www.w3.org/2000/svg" viewBox="0 0 481.9 481.9"><path d="M156.7 419.9v-51.4h-85l80.6 53.8c1.9 1.2 4.4-.1 4.4-2.4z" fill="#dd1600"/><linearGradient id="a" gradientUnits="userSpaceOnUse" x1="71.693" y1="255.118" x2="438.944" y2="255.118"><stop offset="0" stop-color="#ff3e2e"/><stop offset="1" stop-color="#ff8077"/></linearGradient><path d="M351.2 368.5H71.7l86.5-223.2c.8-2.2 2.9-3.6 5.3-3.6h272.7c2 0 3.3 2 2.7 3.8l-82.2 219.3c-1 2.2-3.1 3.7-5.5 3.7z" fill="url(#a)"/><path d="M156 77.3L21.3 158.2c-1.8 1.1-1.8 3.7 0 4.8l331 203.7c1.5.9 3.5.3 4.1-1.4l51.3-136.7L161.9 77.3c-1.8-1.1-4-1.1-5.9 0z" opacity=".7" fill="#ff8077"/></svg>