<svg baseProfile="basic" xmlns="http://www.w3.org/2000/svg" viewBox="0 0 481.9 481.9"><path d="M39.7 186.4v80l25.8 12.9 68.7-41.2L44 184c-1.9-1.1-4.3.2-4.3 2.4z" fill="#009907"/><linearGradient id="a" gradientUnits="userSpaceOnUse" x1="344.984" y1="162.173" x2="179.702" y2="337.413"><stop offset="0" stop-color="#009907"/><stop offset=".999" stop-color="#21d230"/></linearGradient><path d="M323.1 403.6V98.9c0-1.1-1.2-1.8-2.1-1.2L39.7 266.5 319 406.1c1.9 1 4.1-.4 4.1-2.5z" fill="url(#a)"/><path d="M320.2 98.1L39.7 266.5l154.6 77.3 266.5-159.9c1.8-1.1 1.8-3.8 0-4.9L326.1 98.1c-1.8-1-4.1-1-5.9 0z" opacity=".7" fill="#21d230"/></svg>