<?xml version="1.0" encoding="utf-8"?>
<!-- Generator: Adobe Illustrator 19.0.0, SVG Export Plug-In . SVG Version: 6.00 Build 0)  -->
<svg version="1.1" baseProfile="basic" id="Слой_1"
	 xmlns="http://www.w3.org/2000/svg" xmlns:xlink="http://www.w3.org/1999/xlink" x="0px" y="0px" viewBox="0 0 481.9 481.9"
	 xml:space="preserve">
<style type="text/css">
	.st0{opacity:0;fill:#FFFFFF;}
	.st1{fill:url(#SVGID_1_);}
	.st2{opacity:0.7;fill:#40C4FF;}
	.st3{fill:#0687EF;}
</style>
<g>
	<rect x="0" y="0" class="st0" width="481.9" height="481.9"/>
	<linearGradient id="SVGID_1_" gradientUnits="userSpaceOnUse" x1="140.707" y1="166.2782" x2="280.2" y2="356.7687">
		<stop  offset="0" style="stop-color:#0687EF"/>
		<stop  offset="1" style="stop-color:#40C4FF"/>
	</linearGradient>
	<path class="st1" d="M211.1,104.3c-1.8-1.1-4-1.1-5.8,0L69.2,185.9c-1.7,1-2.8,2.9-2.8,4.9l0,135.3c0,2,1,3.8,2.8,4.9l136.1,81.6
		c1.8,1.1,4,1.1,5.8,0l138.8-83.3V190.8c0-2-1-3.8-2.8-4.9L211.1,104.3z"/>
	<path class="st2" d="M68.5,188.8l136.8,82.1c1.8,1.1,4,1.1,5.8,0l212.7-127.6c1.8-1.1,1.8-3.8,0-4.9L289.1,57.5
		c-1.8-1.1-4-1.1-5.8,0L68.5,186.3C67.6,186.9,67.6,188.2,68.5,188.8z"/>
	<path class="st3" d="M349.9,261.3v68l52.6-31.6c1.8-1.1,1.8-3.8,0-4.9L349.9,261.3z"/>
</g>
</svg>
