<svg baseProfile="basic" xmlns="http://www.w3.org/2000/svg" viewBox="0 0 481.9 481.9"><path d="M139.7 97.6v80l-25.8 12.9-68.7-41.2 90.2-54.1c1.9-1.2 4.3.2 4.3 2.4z" fill="#fb8f02"/><linearGradient id="a" gradientUnits="userSpaceOnUse" x1="60.67" y1="350.639" x2="324.301" y2="165.493"><stop offset="0" stop-color="#ffcb48"/><stop offset="1" stop-color="#fb8f02"/></linearGradient><path d="M325.8 376.1H48c-1.6 0-2.8-1.3-2.8-2.8v-224h280.6c1.6 0 2.8 1.3 2.8 2.8v221.1c0 1.6-1.2 2.9-2.8 2.9z" fill="url(#a)"/><path d="M311.6 85.8L45.2 245.7v127.6c0 1.6 1.3 2.8 2.8 2.8h63.3l340.8-204.5c1.8-1.1 1.8-3.8 0-4.9L317.4 85.8c-1.8-1-4-1-5.8 0z" opacity=".7" fill="#ffcb48"/></svg>